<svg xmlns="http://www.w3.org/2000/svg" xmlns:xlink="http://www.w3.org/1999/xlink" width="4" height="16" version="1.1" viewBox="0 0 4 16"><title>Shape</title><desc>Created with Sketch.</desc><g id="Desktop" fill="none" fill-rule="evenodd" stroke="none" stroke-width="1"><g id="1---Login" fill="#FFF" opacity=".54" transform="translate(-1142.000000, -74.000000)"><g id="more-2" transform="translate(1138.000000, 70.000000)"><path id="Shape" d="M6,16 C7.1,16 8,16.9 8,18 C8,19.1 7.1,20 6,20 C4.9,20 4,19.1 4,18 C4,16.9 4.9,16 6,16 L6,16 Z M6,14 C4.9,14 4,13.1 4,12 C4,10.9 4.9,10 6,10 C7.1,10 8,10.9 8,12 C8,13.1 7.1,14 6,14 L6,14 Z M6,8 C4.9,8 4,7.1 4,6 C4,4.9 4.9,4 6,4 C7.1,4 8,4.9 8,6 C8,7.1 7.1,8 6,8 L6,8 Z" transform="translate(6.000000, 12.000000) scale(1, -1) translate(-6.000000, -12.000000)"/></g></g></g></svg>