<svg xmlns="http://www.w3.org/2000/svg" xmlns:xlink="http://www.w3.org/1999/xlink" width="19" height="20" version="1.1" viewBox="0 0 19 20"><title>Shape</title><desc>Created with Sketch.</desc><g id="Desktop" fill="none" fill-rule="evenodd" stroke="none" stroke-width="1"><g id="1---Login" fill="#EB5424" transform="translate(-127.000000, -737.000000)"><g id="auth0-svg" transform="translate(127.000000, 737.000000)"><g id="Page-1"><g id="auth0_logo_final_blue_RGB"><g id="Group"><g id="Clipped"><path id="Shape" d="M14.5746935,16.1739286 L12.5205462,9.99964286 L17.8976578,6.1847619 L11.2509978,6.1847619 L9.19672851,0.0107142857 L9.19611897,0.00904761905 L15.8437543,0.00904761905 L17.8985111,6.18416667 L17.898633,6.18404762 L17.9003397,6.18309524 C19.0935738,9.76547619 17.8646207,13.84 14.5746935,16.1739286 L14.5746935,16.1739286 L14.5746935,16.1739286 Z M3.8182759,16.1739286 L3.81656919,16.175119 L9.1950218,19.9909524 L14.5746935,16.1740476 L9.19672851,12.3580952 L3.8182759,16.1739286 L3.8182759,16.1739286 Z M0.493970625,6.18321429 L0.493970625,6.18321429 C-0.762167904,9.95952381 0.695971939,13.9609524 3.81717873,16.1746429 L3.81766636,16.1727381 L5.87205751,9.99880952 L0.496164966,6.18464286 L7.14124018,6.18464286 L9.19563134,0.0105952381 L9.19611897,0.00892857143 L2.54811797,0.00892857143 L0.493970625,6.18321429 L0.493970625,6.18321429 Z"/></g></g></g></g></g></g></g></svg>