<svg xmlns="http://www.w3.org/2000/svg" xmlns:svg="http://www.w3.org/2000/svg" id="svg2" width="256.596" height="612.596" version="1.1"><metadata id="metadata8"/><g id="g3789" transform="translate(9.8847596,155.98137)"><path id="path2989" d="M 52.863924,25.161392 C 52.863924,39.983946 40.84787,52 26.025316,52 11.202762,52 -0.81329155,39.983946 -0.81329155,25.161392 c 0,-14.822554 12.01605355,-26.8386076 26.83860755,-26.8386076 14.822554,0 26.838608,12.0160536 26.838608,26.8386076 z" transform="matrix(0.9426019,0,0,0.9426019,-8.1181494,-153.40042)" style="fill:none;stroke:#4d4d4d;stroke-width:2.12178659;stroke-miterlimit:4;stroke-dasharray:none"/><path id="path3759" d="m 41.277358,-129.54967 51.883967,0" style="fill:none;stroke:#4d4d4d;stroke-width:2;stroke-linecap:butt;stroke-linejoin:miter;stroke-miterlimit:4;stroke-opacity:1;stroke-dasharray:none"/><path style="fill:none;stroke:#4d4d4d;stroke-width:2.12178659;stroke-miterlimit:4;stroke-dasharray:none" id="path3765" d="M 52.863924,25.161392 C 52.863924,39.983946 40.84787,52 26.025316,52 11.202762,52 -0.81329155,39.983946 -0.81329155,25.161392 c 0,-14.822554 12.01605355,-26.8386076 26.83860755,-26.8386076 14.822554,0 26.838608,12.0160536 26.838608,26.8386076 z" transform="matrix(0.9426019,0,0,0.9426019,93.881855,-153.40042)"/><path id="path3767" d="M 52.863924,25.161392 C 52.863924,39.983946 40.84787,52 26.025316,52 11.202762,52 -0.81329155,39.983946 -0.81329155,25.161392 c 0,-14.822554 12.01605355,-26.8386076 26.83860755,-26.8386076 14.822554,0 26.838608,12.0160536 26.838608,26.8386076 z" transform="matrix(0.9426019,0,0,0.9426019,195.88186,-153.40042)" style="fill:none;stroke:#4d4d4d;stroke-width:2.12178659;stroke-miterlimit:4;stroke-dasharray:none"/><path style="fill:none;stroke:#4d4d4d;stroke-width:2;stroke-linecap:butt;stroke-linejoin:miter;stroke-miterlimit:4;stroke-opacity:1;stroke-dasharray:none" id="path3769" d="m 143.27736,-129.54967 51.88397,0"/><text id="text3771" x="17.781" y="-121.137" xml:space="preserve" style="font-size:23.94318008px;font-style:normal;font-variant:normal;font-weight:600;font-stretch:normal;text-align:center;line-height:125%;letter-spacing:0;word-spacing:0;writing-mode:lr-tb;text-anchor:middle;fill:#4d4d4d;fill-opacity:1;stroke:none;font-family:Open Sans;-inkscape-font-specification:Open Sans Semi-Bold"><tspan id="tspan3773" x="17.781" y="-121.137">1</tspan></text><text style="font-size:23.94318008px;font-style:normal;font-variant:normal;font-weight:600;font-stretch:normal;text-align:center;line-height:125%;letter-spacing:0;word-spacing:0;writing-mode:lr-tb;text-anchor:middle;fill:#4d4d4d;fill-opacity:1;stroke:none;font-family:Open Sans;-inkscape-font-specification:Open Sans Semi-Bold" id="text3775" x="118.396" y="-121.014" xml:space="preserve"><tspan id="tspan3777" x="118.396" y="-121.014">2</tspan></text><text id="text3779" x="220.489" y="-121.131" xml:space="preserve" style="font-size:23.94318008px;font-style:normal;font-variant:normal;font-weight:600;font-stretch:normal;text-align:center;line-height:125%;letter-spacing:0;word-spacing:0;writing-mode:lr-tb;text-anchor:middle;fill:#4d4d4d;fill-opacity:1;stroke:none;font-family:Open Sans;-inkscape-font-specification:Open Sans Semi-Bold"><tspan id="tspan3781" x="220.489" y="-121.131">3</tspan></text><path style="fill:none;stroke:#d45500;stroke-width:2.12178659;stroke-miterlimit:4;stroke-dasharray:none" id="path3787" d="M 52.863924,25.161392 C 52.863924,39.983946 40.84787,52 26.025317,52" transform="matrix(-0.9426019,0,0,-0.9426019,40.944877,-105.96607)"/></g><g id="g3803" transform="translate(9.8847596,235.98137)"><path style="fill:none;stroke:#d45500;stroke-width:2.12178659;stroke-miterlimit:4;stroke-dasharray:none" id="path3805" d="M 52.863924,25.161392 C 52.863924,39.983946 40.84787,52 26.025316,52 11.202762,52 -0.81329155,39.983946 -0.81329155,25.161392 c 0,-14.822554 12.01605355,-26.8386076 26.83860755,-26.8386076 14.822554,0 26.838608,12.0160536 26.838608,26.8386076 z" transform="matrix(0.9426019,0,0,0.9426019,-8.1181494,-153.40042)"/><path style="fill:none;stroke:#4d4d4d;stroke-width:2;stroke-linecap:butt;stroke-linejoin:miter;stroke-miterlimit:4;stroke-opacity:1;stroke-dasharray:none" id="path3807" d="m 41.277358,-129.54967 51.883967,0"/><path id="path3809" d="M 52.863924,25.161392 C 52.863924,39.983946 40.84787,52 26.025316,52 11.202762,52 -0.81329155,39.983946 -0.81329155,25.161392 c 0,-14.822554 12.01605355,-26.8386076 26.83860755,-26.8386076 14.822554,0 26.838608,12.0160536 26.838608,26.8386076 z" transform="matrix(0.9426019,0,0,0.9426019,93.881855,-153.40042)" style="fill:none;stroke:#4d4d4d;stroke-width:2.12178659;stroke-miterlimit:4;stroke-dasharray:none"/><path style="fill:none;stroke:#4d4d4d;stroke-width:2.12178659;stroke-miterlimit:4;stroke-dasharray:none" id="path3811" d="M 52.863924,25.161392 C 52.863924,39.983946 40.84787,52 26.025316,52 11.202762,52 -0.81329155,39.983946 -0.81329155,25.161392 c 0,-14.822554 12.01605355,-26.8386076 26.83860755,-26.8386076 14.822554,0 26.838608,12.0160536 26.838608,26.8386076 z" transform="matrix(0.9426019,0,0,0.9426019,195.88186,-153.40042)"/><path id="path3813" d="m 143.27736,-129.54967 51.88397,0" style="fill:none;stroke:#4d4d4d;stroke-width:2;stroke-linecap:butt;stroke-linejoin:miter;stroke-miterlimit:4;stroke-opacity:1;stroke-dasharray:none"/><text style="font-size:23.94318008px;font-style:normal;font-variant:normal;font-weight:600;font-stretch:normal;text-align:center;line-height:125%;letter-spacing:0;word-spacing:0;writing-mode:lr-tb;text-anchor:middle;fill:#eb5424;fill-opacity:1;stroke:none;font-family:Open Sans;-inkscape-font-specification:Open Sans Semi-Bold" id="text3815" x="17.781" y="-121.137" xml:space="preserve"><tspan id="tspan3817" x="17.781" y="-121.137">1</tspan></text><text id="text3819" x="118.396" y="-121.014" xml:space="preserve" style="font-size:23.94318008px;font-style:normal;font-variant:normal;font-weight:600;font-stretch:normal;text-align:center;line-height:125%;letter-spacing:0;word-spacing:0;writing-mode:lr-tb;text-anchor:middle;fill:#4d4d4d;fill-opacity:1;stroke:none;font-family:Open Sans;-inkscape-font-specification:Open Sans Semi-Bold"><tspan id="tspan3821" x="118.396" y="-121.014">2</tspan></text><text style="font-size:23.94318008px;font-style:normal;font-variant:normal;font-weight:600;font-stretch:normal;text-align:center;line-height:125%;letter-spacing:0;word-spacing:0;writing-mode:lr-tb;text-anchor:middle;fill:#4d4d4d;fill-opacity:1;stroke:none;font-family:Open Sans;-inkscape-font-specification:Open Sans Semi-Bold" id="text3823" x="220.489" y="-121.131" xml:space="preserve"><tspan id="tspan3825" x="220.489" y="-121.131">3</tspan></text><path id="path3829" d="m 41.277358,-129.54967 26.428123,0" style="fill:none;stroke:#d45500;stroke-width:2;stroke-linecap:butt;stroke-linejoin:miter;stroke-miterlimit:4;stroke-opacity:1;stroke-dasharray:none"/></g><g id="g3831" transform="translate(9.8847596,315.98137)"><path id="path3833" d="M 52.863924,25.161392 C 52.863924,39.983946 40.84787,52 26.025316,52 11.202762,52 -0.81329155,39.983946 -0.81329155,25.161392 c 0,-14.822554 12.01605355,-26.8386076 26.83860755,-26.8386076 14.822554,0 26.838608,12.0160536 26.838608,26.8386076 z" transform="matrix(0.9426019,0,0,0.9426019,-8.1181494,-153.40042)" style="fill:none;stroke:#d45500;stroke-width:2.12178659;stroke-miterlimit:4;stroke-dasharray:none"/><path style="fill:none;stroke:#4d4d4d;stroke-width:2.12178659;stroke-miterlimit:4;stroke-dasharray:none" id="path3837" d="M 52.863924,25.161392 C 52.863924,39.983946 40.84787,52 26.025316,52 11.202762,52 -0.81329155,39.983946 -0.81329155,25.161392 c 0,-14.822554 12.01605355,-26.8386076 26.83860755,-26.8386076 14.822554,0 26.838608,12.0160536 26.838608,26.8386076 z" transform="matrix(0.9426019,0,0,0.9426019,93.881855,-153.40042)"/><path id="path3839" d="M 52.863924,25.161392 C 52.863924,39.983946 40.84787,52 26.025316,52 11.202762,52 -0.81329155,39.983946 -0.81329155,25.161392 c 0,-14.822554 12.01605355,-26.8386076 26.83860755,-26.8386076 14.822554,0 26.838608,12.0160536 26.838608,26.8386076 z" transform="matrix(0.9426019,0,0,0.9426019,195.88186,-153.40042)" style="fill:none;stroke:#4d4d4d;stroke-width:2.12178659;stroke-miterlimit:4;stroke-dasharray:none"/><path style="fill:none;stroke:#4d4d4d;stroke-width:2;stroke-linecap:butt;stroke-linejoin:miter;stroke-miterlimit:4;stroke-opacity:1;stroke-dasharray:none" id="path3841" d="m 143.27736,-129.54967 51.88397,0"/><text id="text3843" x="17.781" y="-121.137" xml:space="preserve" style="font-size:23.94318008px;font-style:normal;font-variant:normal;font-weight:600;font-stretch:normal;text-align:center;line-height:125%;letter-spacing:0;word-spacing:0;writing-mode:lr-tb;text-anchor:middle;fill:#eb5424;fill-opacity:1;stroke:none;font-family:Open Sans;-inkscape-font-specification:Open Sans Semi-Bold"><tspan id="tspan3845" x="17.781" y="-121.137">1</tspan></text><text style="font-size:23.94318008px;font-style:normal;font-variant:normal;font-weight:600;font-stretch:normal;text-align:center;line-height:125%;letter-spacing:0;word-spacing:0;writing-mode:lr-tb;text-anchor:middle;fill:#4d4d4d;fill-opacity:1;stroke:none;font-family:Open Sans;-inkscape-font-specification:Open Sans Semi-Bold" id="text3847" x="118.396" y="-121.014" xml:space="preserve"><tspan id="tspan3849" x="118.396" y="-121.014">2</tspan></text><text id="text3851" x="220.489" y="-121.131" xml:space="preserve" style="font-size:23.94318008px;font-style:normal;font-variant:normal;font-weight:600;font-stretch:normal;text-align:center;line-height:125%;letter-spacing:0;word-spacing:0;writing-mode:lr-tb;text-anchor:middle;fill:#4d4d4d;fill-opacity:1;stroke:none;font-family:Open Sans;-inkscape-font-specification:Open Sans Semi-Bold"><tspan id="tspan3853" x="220.489" y="-121.131">3</tspan></text><path style="fill:none;stroke:#d45500;stroke-width:2.12178659;stroke-miterlimit:4;stroke-dasharray:none" id="path3855" d="M 52.863924,25.161392 C 52.863924,39.983946 40.84787,52 26.025317,52" transform="matrix(-0.9426019,0,0,-0.9426019,142.94488,-105.96607)"/><path style="fill:none;stroke:#d45500;stroke-width:2;stroke-linecap:butt;stroke-linejoin:miter;stroke-miterlimit:4;stroke-opacity:1;stroke-dasharray:none" id="path3857" d="m 41.277358,-129.54967 26.428123,0"/><path id="path3835" d="m 42.077,-129.54967 51.084325,0" style="fill:none;stroke:#d45500;stroke-width:2;stroke-linecap:round;stroke-linejoin:miter;stroke-miterlimit:4;stroke-opacity:1;stroke-dasharray:none"/></g><g id="g3859" transform="translate(9.8847596,395.98137)"><path style="fill:none;stroke:#d45500;stroke-width:2.12178659;stroke-miterlimit:4;stroke-dasharray:none" id="path3861" d="M 52.863924,25.161392 C 52.863924,39.983946 40.84787,52 26.025316,52 11.202762,52 -0.81329155,39.983946 -0.81329155,25.161392 c 0,-14.822554 12.01605355,-26.8386076 26.83860755,-26.8386076 14.822554,0 26.838608,12.0160536 26.838608,26.8386076 z" transform="matrix(0.9426019,0,0,0.9426019,-8.1181494,-153.40042)"/><path id="path3863" d="M 52.863924,25.161392 C 52.863924,39.983946 40.84787,52 26.025316,52 11.202762,52 -0.81329155,39.983946 -0.81329155,25.161392 c 0,-14.822554 12.01605355,-26.8386076 26.83860755,-26.8386076 14.822554,0 26.838608,12.0160536 26.838608,26.8386076 z" transform="matrix(0.9426019,0,0,0.9426019,93.881855,-153.40042)" style="fill:none;stroke:#d45500;stroke-width:2.12178659;stroke-miterlimit:4;stroke-dasharray:none"/><path style="fill:none;stroke:#4d4d4d;stroke-width:2.12178659;stroke-miterlimit:4;stroke-dasharray:none" id="path3865" d="M 52.863924,25.161392 C 52.863924,39.983946 40.84787,52 26.025316,52 11.202762,52 -0.81329155,39.983946 -0.81329155,25.161392 c 0,-14.822554 12.01605355,-26.8386076 26.83860755,-26.8386076 14.822554,0 26.838608,12.0160536 26.838608,26.8386076 z" transform="matrix(0.9426019,0,0,0.9426019,195.88186,-153.40042)"/><path id="path3867" d="m 143.27736,-129.54967 51.88397,0" style="fill:none;stroke:#4d4d4d;stroke-width:2;stroke-linecap:butt;stroke-linejoin:miter;stroke-miterlimit:4;stroke-opacity:1;stroke-dasharray:none"/><text style="font-size:23.94318008px;font-style:normal;font-variant:normal;font-weight:600;font-stretch:normal;text-align:center;line-height:125%;letter-spacing:0;word-spacing:0;writing-mode:lr-tb;text-anchor:middle;fill:#eb5424;fill-opacity:1;stroke:none;font-family:Open Sans;-inkscape-font-specification:Open Sans Semi-Bold" id="text3869" x="17.781" y="-121.137" xml:space="preserve"><tspan id="tspan3871" x="17.781" y="-121.137">1</tspan></text><text id="text3873" x="118.396" y="-121.014" xml:space="preserve" style="font-size:23.94318008px;font-style:normal;font-variant:normal;font-weight:600;font-stretch:normal;text-align:center;line-height:125%;letter-spacing:0;word-spacing:0;writing-mode:lr-tb;text-anchor:middle;fill:#d45500;fill-opacity:1;stroke:none;font-family:Open Sans;-inkscape-font-specification:Open Sans Semi-Bold"><tspan id="tspan3875" x="118.396" y="-121.014">2</tspan></text><text style="font-size:23.94318008px;font-style:normal;font-variant:normal;font-weight:600;font-stretch:normal;text-align:center;line-height:125%;letter-spacing:0;word-spacing:0;writing-mode:lr-tb;text-anchor:middle;fill:#4d4d4d;fill-opacity:1;stroke:none;font-family:Open Sans;-inkscape-font-specification:Open Sans Semi-Bold" id="text3877" x="220.489" y="-121.131" xml:space="preserve"><tspan id="tspan3879" x="220.489" y="-121.131">3</tspan></text><path id="path3883" d="m 41.277358,-129.54967 26.428123,0" style="fill:none;stroke:#d45500;stroke-width:2;stroke-linecap:butt;stroke-linejoin:miter;stroke-miterlimit:4;stroke-opacity:1;stroke-dasharray:none"/><path style="fill:none;stroke:#d45500;stroke-width:2;stroke-linecap:round;stroke-linejoin:miter;stroke-miterlimit:4;stroke-opacity:1;stroke-dasharray:none" id="path3885" d="m 42.077,-129.54967 51.084325,0"/><path id="path3887" d="m 144.077,-129.54967 25.08433,0" style="fill:none;stroke:#d45500;stroke-width:2;stroke-linecap:round;stroke-linejoin:miter;stroke-miterlimit:4;stroke-opacity:1;stroke-dasharray:none"/></g><g id="g3889" transform="translate(9.8847596,475.98137)"><path id="path3891" d="M 52.863924,25.161392 C 52.863924,39.983946 40.84787,52 26.025316,52 11.202762,52 -0.81329155,39.983946 -0.81329155,25.161392 c 0,-14.822554 12.01605355,-26.8386076 26.83860755,-26.8386076 14.822554,0 26.838608,12.0160536 26.838608,26.8386076 z" transform="matrix(0.9426019,0,0,0.9426019,-8.1181494,-153.40042)" style="fill:none;stroke:#d45500;stroke-width:2.12178659;stroke-miterlimit:4;stroke-dasharray:none"/><path style="fill:none;stroke:#d45500;stroke-width:2.12178659;stroke-miterlimit:4;stroke-dasharray:none" id="path3893" d="M 52.863924,25.161392 C 52.863924,39.983946 40.84787,52 26.025316,52 11.202762,52 -0.81329155,39.983946 -0.81329155,25.161392 c 0,-14.822554 12.01605355,-26.8386076 26.83860755,-26.8386076 14.822554,0 26.838608,12.0160536 26.838608,26.8386076 z" transform="matrix(0.9426019,0,0,0.9426019,93.881855,-153.40042)"/><path id="path3895" d="M 52.863924,25.161392 C 52.863924,39.983946 40.84787,52 26.025316,52 11.202762,52 -0.81329155,39.983946 -0.81329155,25.161392 c 0,-14.822554 12.01605355,-26.8386076 26.83860755,-26.8386076 14.822554,0 26.838608,12.0160536 26.838608,26.8386076 z" transform="matrix(0.9426019,0,0,0.9426019,195.88186,-153.40042)" style="fill:none;stroke:#4d4d4d;stroke-width:2.12178659;stroke-miterlimit:4;stroke-dasharray:none"/><text id="text3899" x="17.781" y="-121.137" xml:space="preserve" style="font-size:23.94318008px;font-style:normal;font-variant:normal;font-weight:600;font-stretch:normal;text-align:center;line-height:125%;letter-spacing:0;word-spacing:0;writing-mode:lr-tb;text-anchor:middle;fill:#eb5424;fill-opacity:1;stroke:none;font-family:Open Sans;-inkscape-font-specification:Open Sans Semi-Bold"><tspan id="tspan3901" x="17.781" y="-121.137">1</tspan></text><text style="font-size:23.94318008px;font-style:normal;font-variant:normal;font-weight:600;font-stretch:normal;text-align:center;line-height:125%;letter-spacing:0;word-spacing:0;writing-mode:lr-tb;text-anchor:middle;fill:#d45500;fill-opacity:1;stroke:none;font-family:Open Sans;-inkscape-font-specification:Open Sans Semi-Bold" id="text3903" x="118.396" y="-121.014" xml:space="preserve"><tspan id="tspan3905" x="118.396" y="-121.014">2</tspan></text><text id="text3907" x="220.489" y="-121.131" xml:space="preserve" style="font-size:23.94318008px;font-style:normal;font-variant:normal;font-weight:600;font-stretch:normal;text-align:center;line-height:125%;letter-spacing:0;word-spacing:0;writing-mode:lr-tb;text-anchor:middle;fill:#4d4d4d;fill-opacity:1;stroke:none;font-family:Open Sans;-inkscape-font-specification:Open Sans Semi-Bold"><tspan id="tspan3909" x="220.489" y="-121.131">3</tspan></text><path style="fill:none;stroke:#d45500;stroke-width:2.12178659;stroke-miterlimit:4;stroke-dasharray:none" id="path3911" d="M 52.863924,25.161392 C 52.863924,39.983946 40.84787,52 26.025317,52" transform="matrix(-0.9426019,0,0,-0.9426019,244.94488,-105.96607)"/><path style="fill:none;stroke:#d45500;stroke-width:2;stroke-linecap:butt;stroke-linejoin:miter;stroke-miterlimit:4;stroke-opacity:1;stroke-dasharray:none" id="path3913" d="m 41.277358,-129.54967 26.428123,0"/><path id="path3915" d="m 42.077,-129.54967 51.084325,0" style="fill:none;stroke:#d45500;stroke-width:2;stroke-linecap:round;stroke-linejoin:miter;stroke-miterlimit:4;stroke-opacity:1;stroke-dasharray:none"/><path style="fill:none;stroke:#d45500;stroke-width:2;stroke-linecap:round;stroke-linejoin:miter;stroke-miterlimit:4;stroke-opacity:1;stroke-dasharray:none" id="path3917" d="m 144.077,-129.54967 25.08433,0"/><path style="fill:none;stroke:#d45500;stroke-width:2;stroke-linecap:round;stroke-linejoin:miter;stroke-miterlimit:4;stroke-opacity:1;stroke-dasharray:none" id="path3919" d="m 144.077,-129.54967 51.08433,0"/></g><g id="g3921" transform="translate(9.8847596,555.98137)"><path style="fill:none;stroke:#d45500;stroke-width:2.12178659;stroke-miterlimit:4;stroke-dasharray:none" id="path3923" d="M 52.863924,25.161392 C 52.863924,39.983946 40.84787,52 26.025316,52 11.202762,52 -0.81329155,39.983946 -0.81329155,25.161392 c 0,-14.822554 12.01605355,-26.8386076 26.83860755,-26.8386076 14.822554,0 26.838608,12.0160536 26.838608,26.8386076 z" transform="matrix(0.9426019,0,0,0.9426019,-8.1181494,-153.40042)"/><path id="path3925" d="M 52.863924,25.161392 C 52.863924,39.983946 40.84787,52 26.025316,52 11.202762,52 -0.81329155,39.983946 -0.81329155,25.161392 c 0,-14.822554 12.01605355,-26.8386076 26.83860755,-26.8386076 14.822554,0 26.838608,12.0160536 26.838608,26.8386076 z" transform="matrix(0.9426019,0,0,0.9426019,93.881855,-153.40042)" style="fill:none;stroke:#d45500;stroke-width:2.12178659;stroke-miterlimit:4;stroke-dasharray:none"/><path style="fill:none;stroke:#4d4d4d;stroke-width:2.12178659;stroke-miterlimit:4;stroke-dasharray:none" id="path3927" d="M 52.863924,25.161392 C 52.863924,39.983946 40.84787,52 26.025316,52 11.202762,52 -0.81329155,39.983946 -0.81329155,25.161392 c 0,-14.822554 12.01605355,-26.8386076 26.83860755,-26.8386076 14.822554,0 26.838608,12.0160536 26.838608,26.8386076 z" transform="matrix(0.9426019,0,0,0.9426019,195.88186,-153.40042)"/><text style="font-size:23.94318008px;font-style:normal;font-variant:normal;font-weight:600;font-stretch:normal;text-align:center;line-height:125%;letter-spacing:0;word-spacing:0;writing-mode:lr-tb;text-anchor:middle;fill:#eb5424;fill-opacity:1;stroke:none;font-family:Open Sans;-inkscape-font-specification:Open Sans Semi-Bold" id="text3929" x="17.781" y="-121.137" xml:space="preserve"><tspan id="tspan3931" x="17.781" y="-121.137">1</tspan></text><text id="text3933" x="118.396" y="-121.014" xml:space="preserve" style="font-size:23.94318008px;font-style:normal;font-variant:normal;font-weight:600;font-stretch:normal;text-align:center;line-height:125%;letter-spacing:0;word-spacing:0;writing-mode:lr-tb;text-anchor:middle;fill:#d45500;fill-opacity:1;stroke:none;font-family:Open Sans;-inkscape-font-specification:Open Sans Semi-Bold"><tspan id="tspan3935" x="118.396" y="-121.014">2</tspan></text><text style="font-size:23.94318008px;font-style:normal;font-variant:normal;font-weight:600;font-stretch:normal;text-align:center;line-height:125%;letter-spacing:0;word-spacing:0;writing-mode:lr-tb;text-anchor:middle;fill:#4d4d4d;fill-opacity:1;stroke:none;font-family:Open Sans;-inkscape-font-specification:Open Sans Semi-Bold" id="text3937" x="220.489" y="-121.131" xml:space="preserve"><tspan id="tspan3939" x="220.489" y="-121.131">3</tspan></text><path id="path3941" d="M 52.863924,25.161392 C 52.863924,39.983946 40.84787,52 26.025317,52" transform="matrix(-0.9426019,0,0,-0.9426019,244.94488,-105.96607)" style="fill:none;stroke:#d45500;stroke-width:2.12178659;stroke-miterlimit:4;stroke-dasharray:none"/><path id="path3943" d="m 41.277358,-129.54967 26.428123,0" style="fill:none;stroke:#d45500;stroke-width:2;stroke-linecap:butt;stroke-linejoin:miter;stroke-miterlimit:4;stroke-opacity:1;stroke-dasharray:none"/><path style="fill:none;stroke:#d45500;stroke-width:2;stroke-linecap:round;stroke-linejoin:miter;stroke-miterlimit:4;stroke-opacity:1;stroke-dasharray:none" id="path3945" d="m 42.077,-129.54967 51.084325,0"/><path id="path3947" d="m 144.077,-129.54967 25.08433,0" style="fill:none;stroke:#d45500;stroke-width:2;stroke-linecap:round;stroke-linejoin:miter;stroke-miterlimit:4;stroke-opacity:1;stroke-dasharray:none"/><path id="path3949" d="m 144.077,-129.54967 51.08433,0" style="fill:none;stroke:#d45500;stroke-width:2;stroke-linecap:round;stroke-linejoin:miter;stroke-miterlimit:4;stroke-opacity:1;stroke-dasharray:none"/><path style="fill:none;stroke:#d45500;stroke-width:2.12178659;stroke-linecap:round;stroke-miterlimit:4;stroke-dasharray:none" id="path3951" d="M 52.863924,25.161392 C 52.863924,39.983946 40.84787,52 26.025317,52" transform="matrix(0,-0.9426019,0.9426019,0,196.69619,-105.15173)"/></g><g id="g3953" transform="translate(9.8847596,635.98137)"><path id="path3955" d="M 52.863924,25.161392 C 52.863924,39.983946 40.84787,52 26.025316,52 11.202762,52 -0.81329155,39.983946 -0.81329155,25.161392 c 0,-14.822554 12.01605355,-26.8386076 26.83860755,-26.8386076 14.822554,0 26.838608,12.0160536 26.838608,26.8386076 z" transform="matrix(0.9426019,0,0,0.9426019,-8.1181494,-153.40042)" style="fill:none;stroke:#d45500;stroke-width:2.12178659;stroke-miterlimit:4;stroke-dasharray:none"/><path style="fill:none;stroke:#d45500;stroke-width:2.12178659;stroke-miterlimit:4;stroke-dasharray:none" id="path3957" d="M 52.863924,25.161392 C 52.863924,39.983946 40.84787,52 26.025316,52 11.202762,52 -0.81329155,39.983946 -0.81329155,25.161392 c 0,-14.822554 12.01605355,-26.8386076 26.83860755,-26.8386076 14.822554,0 26.838608,12.0160536 26.838608,26.8386076 z" transform="matrix(0.9426019,0,0,0.9426019,93.881855,-153.40042)"/><path id="path3959" d="M 52.863924,25.161392 C 52.863924,39.983946 40.84787,52 26.025316,52 11.202762,52 -0.81329155,39.983946 -0.81329155,25.161392 c 0,-14.822554 12.01605355,-26.8386076 26.83860755,-26.8386076 14.822554,0 26.838608,12.0160536 26.838608,26.8386076 z" transform="matrix(0.9426019,0,0,0.9426019,195.88186,-153.40042)" style="fill:none;stroke:#4d4d4d;stroke-width:2.12178659;stroke-miterlimit:4;stroke-dasharray:none"/><text id="text3961" x="17.781" y="-121.137" xml:space="preserve" style="font-size:23.94318008px;font-style:normal;font-variant:normal;font-weight:600;font-stretch:normal;text-align:center;line-height:125%;letter-spacing:0;word-spacing:0;writing-mode:lr-tb;text-anchor:middle;fill:#eb5424;fill-opacity:1;stroke:none;font-family:Open Sans;-inkscape-font-specification:Open Sans Semi-Bold"><tspan id="tspan3963" x="17.781" y="-121.137">1</tspan></text><text style="font-size:23.94318008px;font-style:normal;font-variant:normal;font-weight:600;font-stretch:normal;text-align:center;line-height:125%;letter-spacing:0;word-spacing:0;writing-mode:lr-tb;text-anchor:middle;fill:#d45500;fill-opacity:1;stroke:none;font-family:Open Sans;-inkscape-font-specification:Open Sans Semi-Bold" id="text3965" x="118.396" y="-121.014" xml:space="preserve"><tspan id="tspan3967" x="118.396" y="-121.014">2</tspan></text><text id="text3969" x="220.489" y="-121.131" xml:space="preserve" style="font-size:23.94318008px;font-style:normal;font-variant:normal;font-weight:600;font-stretch:normal;text-align:center;line-height:125%;letter-spacing:0;word-spacing:0;writing-mode:lr-tb;text-anchor:middle;fill:#4d4d4d;fill-opacity:1;stroke:none;font-family:Open Sans;-inkscape-font-specification:Open Sans Semi-Bold"><tspan id="tspan3971" x="220.489" y="-121.131">3</tspan></text><path style="fill:none;stroke:#d45500;stroke-width:2.12178659;stroke-miterlimit:4;stroke-dasharray:none" id="path3973" d="M 52.863924,25.161392 C 52.863924,39.983946 40.84787,52 26.025317,52" transform="matrix(-0.9426019,0,0,-0.9426019,244.94488,-105.96607)"/><path style="fill:none;stroke:#d45500;stroke-width:2;stroke-linecap:butt;stroke-linejoin:miter;stroke-miterlimit:4;stroke-opacity:1;stroke-dasharray:none" id="path3975" d="m 41.277358,-129.54967 26.428123,0"/><path id="path3977" d="m 42.077,-129.54967 51.084325,0" style="fill:none;stroke:#d45500;stroke-width:2;stroke-linecap:round;stroke-linejoin:miter;stroke-miterlimit:4;stroke-opacity:1;stroke-dasharray:none"/><path style="fill:none;stroke:#d45500;stroke-width:2;stroke-linecap:round;stroke-linejoin:miter;stroke-miterlimit:4;stroke-opacity:1;stroke-dasharray:none" id="path3979" d="m 144.077,-129.54967 25.08433,0"/><path style="fill:none;stroke:#d45500;stroke-width:2;stroke-linecap:round;stroke-linejoin:miter;stroke-miterlimit:4;stroke-opacity:1;stroke-dasharray:none" id="path3981" d="m 144.077,-129.54967 51.08433,0"/><path id="path3983" d="M 52.863924,25.161392 C 52.863924,39.983946 40.84787,52 26.025317,52" transform="matrix(0,-0.9426019,0.9426019,0,196.69619,-105.15173)" style="fill:none;stroke:#d45500;stroke-width:2.12178659;stroke-linecap:round;stroke-miterlimit:4;stroke-dasharray:none"/><path style="fill:none;stroke:#d45500;stroke-width:2.12178659;stroke-linecap:round;stroke-miterlimit:4;stroke-dasharray:none" id="path3985" d="M 52.863924,25.161392 C 52.863924,39.983946 40.84787,52 26.025317,52" transform="matrix(0,0.9426019,0.9426019,0,196.69619,-154.21476)"/></g><g id="g3987" transform="translate(9.8847596,715.98137)"><path style="fill:none;stroke:#d45500;stroke-width:2.12178659;stroke-miterlimit:4;stroke-dasharray:none" id="path3989" d="M 52.863924,25.161392 C 52.863924,39.983946 40.84787,52 26.025316,52 11.202762,52 -0.81329155,39.983946 -0.81329155,25.161392 c 0,-14.822554 12.01605355,-26.8386076 26.83860755,-26.8386076 14.822554,0 26.838608,12.0160536 26.838608,26.8386076 z" transform="matrix(0.9426019,0,0,0.9426019,-8.1181494,-153.40042)"/><path id="path3991" d="M 52.863924,25.161392 C 52.863924,39.983946 40.84787,52 26.025316,52 11.202762,52 -0.81329155,39.983946 -0.81329155,25.161392 c 0,-14.822554 12.01605355,-26.8386076 26.83860755,-26.8386076 14.822554,0 26.838608,12.0160536 26.838608,26.8386076 z" transform="matrix(0.9426019,0,0,0.9426019,93.881855,-153.40042)" style="fill:none;stroke:#d45500;stroke-width:2.12178659;stroke-miterlimit:4;stroke-dasharray:none"/><path style="fill:none;stroke:#4d4d4d;stroke-width:2.12178659;stroke-miterlimit:4;stroke-dasharray:none" id="path3993" d="M 52.863924,25.161392 C 52.863924,39.983946 40.84787,52 26.025316,52 11.202762,52 -0.81329155,39.983946 -0.81329155,25.161392 c 0,-14.822554 12.01605355,-26.8386076 26.83860755,-26.8386076 14.822554,0 26.838608,12.0160536 26.838608,26.8386076 z" transform="matrix(0.9426019,0,0,0.9426019,195.88186,-153.40042)"/><text style="font-size:23.94318008px;font-style:normal;font-variant:normal;font-weight:600;font-stretch:normal;text-align:center;line-height:125%;letter-spacing:0;word-spacing:0;writing-mode:lr-tb;text-anchor:middle;fill:#eb5424;fill-opacity:1;stroke:none;font-family:Open Sans;-inkscape-font-specification:Open Sans Semi-Bold" id="text3995" x="17.781" y="-121.137" xml:space="preserve"><tspan id="tspan3997" x="17.781" y="-121.137">1</tspan></text><text id="text3999" x="118.396" y="-121.014" xml:space="preserve" style="font-size:23.94318008px;font-style:normal;font-variant:normal;font-weight:600;font-stretch:normal;text-align:center;line-height:125%;letter-spacing:0;word-spacing:0;writing-mode:lr-tb;text-anchor:middle;fill:#d45500;fill-opacity:1;stroke:none;font-family:Open Sans;-inkscape-font-specification:Open Sans Semi-Bold"><tspan id="tspan4001" x="118.396" y="-121.014">2</tspan></text><text style="font-size:23.94318008px;font-style:normal;font-variant:normal;font-weight:600;font-stretch:normal;text-align:center;line-height:125%;letter-spacing:0;word-spacing:0;writing-mode:lr-tb;text-anchor:middle;fill:#d45500;fill-opacity:1;stroke:none;font-family:Open Sans;-inkscape-font-specification:Open Sans Semi-Bold" id="text4003" x="220.489" y="-121.131" xml:space="preserve"><tspan id="tspan4005" x="220.489" y="-121.131">3</tspan></text><path id="path4007" d="M 52.863924,25.161392 C 52.863924,39.983946 40.84787,52 26.025317,52" transform="matrix(-0.9426019,0,0,-0.9426019,244.94488,-105.96607)" style="fill:none;stroke:#d45500;stroke-width:2.12178659;stroke-miterlimit:4;stroke-dasharray:none"/><path id="path4009" d="m 41.277358,-129.54967 26.428123,0" style="fill:none;stroke:#d45500;stroke-width:2;stroke-linecap:butt;stroke-linejoin:miter;stroke-miterlimit:4;stroke-opacity:1;stroke-dasharray:none"/><path style="fill:none;stroke:#d45500;stroke-width:2;stroke-linecap:round;stroke-linejoin:miter;stroke-miterlimit:4;stroke-opacity:1;stroke-dasharray:none" id="path4011" d="m 42.077,-129.54967 51.084325,0"/><path id="path4013" d="m 144.077,-129.54967 25.08433,0" style="fill:none;stroke:#d45500;stroke-width:2;stroke-linecap:round;stroke-linejoin:miter;stroke-miterlimit:4;stroke-opacity:1;stroke-dasharray:none"/><path id="path4015" d="m 144.077,-129.54967 51.08433,0" style="fill:none;stroke:#d45500;stroke-width:2;stroke-linecap:round;stroke-linejoin:miter;stroke-miterlimit:4;stroke-opacity:1;stroke-dasharray:none"/><path style="fill:none;stroke:#d45500;stroke-width:2.12178659;stroke-linecap:round;stroke-miterlimit:4;stroke-dasharray:none" id="path4017" d="M 52.863924,25.161392 C 52.863924,39.983946 40.84787,52 26.025317,52" transform="matrix(0,-0.9426019,0.9426019,0,196.69619,-105.15173)"/><path id="path4019" d="M 52.863924,25.161392 C 52.863924,39.983946 40.84787,52 26.025317,52" transform="matrix(0,0.9426019,0.9426019,0,196.69619,-154.21476)" style="fill:none;stroke:#d45500;stroke-width:2.12178659;stroke-linecap:round;stroke-miterlimit:4;stroke-dasharray:none"/><path style="fill:none;stroke:#d45500;stroke-width:2.12178659;stroke-linecap:round;stroke-miterlimit:4;stroke-dasharray:none" id="path4021" d="M 52.863924,25.161392 C 52.863924,39.983946 40.84787,52 26.025317,52" transform="matrix(0,0.9426019,-0.9426019,0,244.1283,-154.21476)"/></g></svg>